<svg id="Capa_1" enable-background="new 0 0 497 497" height="512" viewBox="0 0 497 497" width="512" xmlns="http://www.w3.org/2000/svg"><g><path d="m372.044 248.5c0 88.918 33.703 151.151 91.267 210.329 2.918 3 7.732 3.036 10.692.077l17.732-17.732c2.902-2.902 2.924-7.599.06-10.538-53.758-55.159-80.75-106.073-80.75-182.136z" fill="#e27c48"/><path d="m5.266 441.174 17.732 17.732c2.961 2.961 7.778 2.92 10.697-.082 13.852-14.245 26.309-28.672 37.262-43.6l10-37.01-10-43.146c-13.211 34.098-35.13 64.148-65.75 95.569-2.865 2.938-2.843 7.635.059 10.537z" fill="#e27c48"/><path d="m85.956 248.5c0 32.736-5.019 60.805-15 86.567v80.156c34.551-47.089 54-99.211 54-166.724h-39z" fill="#dd552d"/><path d="m321.044 79.019s0-17.552 0-37.966c0-29.986 17.574-41.053 30-41.053h60v184.039z" fill="#e29576"/><path d="m381.044 204.46s0-133.421 0-163.407 17.574-41.053 30-41.053 30 11.067 30 41.053v140.907c0 12.426-10.074 22.5-22.5 22.5-13.201 0-37.5 0-37.5 0z" fill="#e27c48"/><path d="m175.956 79.019s0-17.552 0-37.966c0-29.986-17.574-41.053-30-41.053-12.428 0-60 0-60 0v184.039z" fill="#e29576"/><path d="m74.908 7.152c-5.711 0-9.774 3.479-9.774 3.479-5.348 6.551-9.179 16.424-9.179 30.421v140.907c0 12.426 10.073 22.5 22.5 22.5h27.5c0-33.371 0-140.041 0-160.751.001-28.131-18.62-36.556-31.047-36.556z" fill="#e27c48"/><path d="m115.956 41.053c0-29.986-17.574-41.053-30-41.053-6.626 0-14.713 3.149-20.821 10.631 2.004-.424 3.97-.631 5.821-.631 12.426 0 30 9.087 30 33.709v160.751h15s0-133.422 0-163.407z" fill="#dd552d"/><path d="m85.956 367h325.088v-182.961c0-57.317-42.842-113.782-162.544-113.782-65.081 0-107.436 16.694-132.544 41.139-10.399 16.643-20 38.86-20 57.643z" fill="#ffd064"/><path d="m100.956 169.039c0-18.783 4.601-41 15-57.643-21.073 20.516-30 46.489-30 72.643v182.961l15-39.665z" fill="#ebb044"/><path d="m381.044 332.529c-4.143 0-7.5-3.358-7.5-7.5v-140.99c0-14.487-4.626-35.219-26.663-51.714-21.78-16.302-54.88-24.568-98.381-24.568s-76.601 8.266-98.381 24.568c-22.037 16.495-26.663 37.227-26.663 51.714v140.99c0 4.142-3.357 7.5-7.5 7.5s-7.5-3.358-7.5-7.5v-140.99c0-25.32 11.604-47.951 32.675-63.722 24.432-18.288 60.556-27.56 107.369-27.56s82.938 9.272 107.369 27.56c21.07 15.771 32.675 38.402 32.675 63.722v140.99c0 4.142-3.357 7.5-7.5 7.5z" fill="#b36d3c"/><path d="m411.044 367c0-33.137-26.863-60-60-60h-205.088c-17.927 0-34.006 7.871-45 20.335l-5 114.665c0 24.853 20.147 45 45 45h220.088c12.737 0 29.538-8.98 39.252-15.748 6.768-9.714 10.748-21.515 10.748-34.252z" fill="#e29576"/><path d="m145.956 482c-24.853 0-45-20.147-45-45v-109.665c-9.329 10.575-15 24.454-15 39.665v70c0 33.137 26.863 60 60 60h205.088c20.4 0 38.411-10.19 49.252-25.748-9.714 6.768-21.515 10.748-34.252 10.748z" fill="#e27c48"/><path d="m381.044 414.5c-4.143 0-7.5-3.358-7.5-7.5v-40c0-12.407-10.094-22.5-22.5-22.5h-205.088c-12.406 0-22.5 10.093-22.5 22.5v40c0 4.142-3.357 7.5-7.5 7.5s-7.5-3.358-7.5-7.5v-40c0-20.678 16.822-37.5 37.5-37.5h205.088c20.678 0 37.5 16.822 37.5 37.5v40c0 4.142-3.357 7.5-7.5 7.5z" fill="#b36d3c"/></g></svg>